<svg xmlns="http://www.w3.org/2000/svg" width="560" height="250" viewBox="0 0 560 250" role="img" aria-labelledby="title desc"><title id="title">VELE Power-Grid Vulnerability Screening</title><desc id="desc">Research cover for the VELE power-grid reproducibility repository.</desc><defs><linearGradient id="bg" x1="0" y1="0" x2="1" y2="1"><stop stop-color="#071522"/><stop offset="1" stop-color="#103f59"/></linearGradient><linearGradient id="a" x1="0" y1="0" x2="1" y2="0"><stop stop-color="#4dd7ff"/><stop offset="1" stop-color="#87f0c6"/></linearGradient><filter id="g"><feGaussianBlur stdDeviation="3" result="b"/><feMerge><feMergeNode in="b"/><feMergeNode in="SourceGraphic"/></feMerge></filter></defs><rect width="560" height="250" rx="24" fill="url(#bg)"/><text x="28" y="40" fill="#8fb8ce" font-family="Arial,Helvetica,sans-serif" font-size="14" font-weight="700" letter-spacing="2">NETWORK RESILIENCE</text><text x="28" y="83" fill="#fff" font-family="Arial,Helvetica,sans-serif" font-size="28" font-weight="800">VELE Power-Grid</text><text x="28" y="116" fill="#fff" font-family="Arial,Helvetica,sans-serif" font-size="28" font-weight="800">Vulnerability Screening</text><text x="28" y="151" fill="#b6d2df" font-family="Arial,Helvetica,sans-serif" font-size="16">Graph structure × DC-flow validation</text><text x="28" y="205" fill="#fff" font-family="Arial,Helvetica,sans-serif" font-size="30" font-weight="800">784</text><text x="99" y="204" fill="#a8c2d0" font-family="Arial,Helvetica,sans-serif" font-size="15">branch outages</text><text x="250" y="205" fill="#fff" font-family="Arial,Helvetica,sans-serif" font-size="30" font-weight="800">1,692</text><text x="346" y="204" fill="#a8c2d0" font-family="Arial,Helvetica,sans-serif" font-size="15">progressive states</text><g transform="translate(430 40)" stroke="url(#a)" stroke-width="2" fill="none" opacity=".72"><path d="M12 20 L66 6 L102 44 L81 91 L25 82 Z"/><path d="M12 20 L81 91 M66 6 L25 82 M102 44 L25 82"/></g><g fill="#d9fbff" filter="url(#g)"><circle cx="442" cy="60" r="5"/><circle cx="496" cy="46" r="5"><animate attributeName="opacity" values=".35;1;.35" dur="2.4s" repeatCount="indefinite"/></circle><circle cx="532" cy="84" r="5"/><circle cx="511" cy="131" r="5"/><circle cx="455" cy="122" r="5"/></g><rect x="28" y="228" width="504" height="2" rx="1" fill="url(#a)" opacity=".75"/></svg>